<svg width="125" height="125" viewBox="0 0 125 125" fill="none" xmlns="http://www.w3.org/2000/svg">
<g clip-path="url(#clip0_3_35)">
<rect width="125" height="125" fill="white"/>
<path fill-rule="evenodd" clip-rule="evenodd" d="M31.6744 25.3718C29.323 30.0758 28 35.3834 28 41C28 60.33 43.67 76 63 76C82.33 76 98 60.33 98 41C98 36.4018 97.1133 32.0106 95.5015 27.9883C104.582 36.7401 110.23 49.028 110.23 62.6352C110.23 89.2084 88.6883 110.75 62.1151 110.75C35.5418 110.75 14 89.2084 14 62.6352C14 47.611 20.8861 34.1952 31.6744 25.3718Z" fill="#6C12AC"/>
<path d="M8.5 91.002C-1.07581 91.002 -16 95.5034 -16 95.5034V107.002L54 122L125 104.502V95.5034C125 95.5034 110.576 91.0021 101 91.0021C91.4242 91.0021 87.5757 95.4487 78 95.5034C68.2371 95.5591 63.7624 90.8883 54 91.002C44.6118 91.1114 40.3887 95.4476 31 95.5034C21.4244 95.5602 18.0758 91.002 8.5 91.002Z" fill="white"/>
</g>
<defs>
<clipPath id="clip0_3_35">
<rect width="125" height="125" fill="white"/>
</clipPath>
</defs>
</svg>
